<!-- Generator: Adobe Illustrator 24.0.0, SVG Export Plug-In  -->
<svg version="1.1" xmlns="http://www.w3.org/2000/svg" xmlns:xlink="http://www.w3.org/1999/xlink" x="0px" y="0px"
	 width="360.44px" height="360.17px" viewBox="0 0 360.44 360.17" style="enable-background:new 0 0 360.44 360.17;"
	 xml:space="preserve">
<defs>
</defs>
<g>
	<path d="M101.84,5.54c0.98-0.64,1.81-1.47,2.8-1.76c1.08-0.31,2.31-0.15,3.48-0.15c21.5,0,42.99-0.04,64.49,0.02
		c8.52,0.02,16.84,1.41,25.01,3.93c16.16,4.99,27.83,15.22,35.58,30.09c1.46,2.79,2.8,5.64,4.39,8.85
		c2.11-7.62,4.73-14.57,8.94-20.78C253.9,14.87,263,6.1,275.96,2.26c12.73-3.77,24.33-1.73,34.53,7.04c1.39,1.19,2.82,2.34,4.24,3.5
		c4.56,3.7,8.77,4.3,13.76,1.14c4.77-3.01,9.16-6.63,13.73-9.96c1.7-1.24,3.45-2.43,5.66-3.98c0.6,1.58,1.11,2.55,1.32,3.58
		c0.19,0.96,0.07,1.99,0.07,2.99c0,40.83,0.01,81.65-0.01,122.48c0,1.65,0.15,3.46-0.44,4.92c-0.48,1.18-1.84,2.51-3.04,2.77
		c-1.74,0.39-2.53-1.27-2.78-2.84c-1.02-6.39-2.12-12.78-2.97-19.19c-2.12-16.14-4.86-32.17-8.46-48.04
		c-2.42-10.7-5.42-21.24-9.62-31.4c-2.75-6.66-6.14-12.93-10.9-18.38c-3.58-4.1-7.83-7.09-13.36-8.14
		c-5.62-1.07-10.52,0.26-14.88,3.79c-5.9,4.78-8.55,11.2-9.63,18.56c-2.04,13.94,1.52,27.07,5.65,40.07
		c6.72,21.13,16.12,41.15,25.94,60.99c9.97,20.13,20.02,40.21,29.68,60.49c8.22,17.26,15.58,34.9,20.38,53.5
		c4.09,15.88,6.41,31.97,5.33,48.37c-1,15.15-4.59,29.61-13.9,42.01c-8.21,10.94-18.42,19.3-32.1,22.34
		c-15.05,3.35-28.72,0.32-40.6-9.82c-2.15-1.84-4.47-3.48-6.6-5.33c-3.26-2.82-9.23-2.43-12.09,0.05c-3.27,2.83-6.43,5.78-9.69,8.62
		c-2.46,2.15-5,4.23-7.31,6.19c-3.21-1.38-2.82-3.71-2.83-5.82c-0.03-9-0.01-18-0.01-26.99c0-1.66,0-3.32,0-5.35
		c-2.99,4.51-5.48,8.9-8.56,12.83c-9.09,11.56-21.03,18.67-35.4,21.7c-7.02,1.48-14.12,2.05-21.31,2.02
		c-19.16-0.08-38.33-0.04-57.49-0.01c-2.83,0-5.58,0.09-5.71-3.66c-5.19,1.71-10.12,3.64-15.22,4.95c-9.8,2.52-19.75,2.1-29.73,1.03
		c-5.66-0.61-11.12-1.9-16.44-3.87c-14.63-5.41-23.59-15.54-26.35-31.09c-1.22-6.9-2.01-13.79-2.01-20.81
		c0.01-49.99-0.04-99.98-0.05-149.97c-0.01-45.82,0-91.65,0-137.47c0-1.81,0-3.62,0-5.99c-3.88-0.05-7.48-0.17-11.08-0.12
		C3.2,10.01,1.09,9.56,0,6.74c0.82-2.26,2.51-3.15,4.94-3.12c4.17,0.05,8.33,0.01,12.5,0.01c21,0,41.99-0.01,62.99,0.02
		c2.06,0,4.49-0.67,5.59,2.32c-0.15,2.9-2.39,3.99-4.79,4.84c-2.19,0.78-4.46,1.33-6.64,2.13c-4.84,1.76-7.59,5.34-8.2,10.38
		c-0.54,4.45-1.05,8.94-1.06,13.41c-0.07,98.31-0.09,196.63-0.04,294.94c0,3.28,0.25,6.75,1.34,9.79
		c2.46,6.85,7.58,10.6,14.99,11.31c19.08,1.82,31.44-10.43,36.28-23.18c2.31-6.09,3.87-12.37,4.14-18.91
		c0.34-8.14,0.83-16.29,0.83-24.43c0.06-81.15,0.06-162.3-0.01-243.45c0-5.98-0.53-11.96-0.97-17.92
		c-0.45-6.04-3.38-10.34-9.31-12.27c-1.89-0.62-3.81-1.14-5.72-1.71C104.51,10.18,102.68,8.9,101.84,5.54z M172.66,348.82
		c6.04-0.03,11.49,0.34,16.9-1.15c4.63-1.28,7.67-3.98,8.42-8.77c0.79-5.07,1.86-10.19,1.87-15.29
		c0.11-96.98,0.11-193.95,0.01-290.93c0-4.26-0.98-8.56-1.86-12.77c-1.01-4.82-4.22-7.78-8.93-9.14c-5.38-1.56-10.8-0.6-16.41-0.73
		C172.66,123.08,172.66,235.65,172.66,348.82z M252.28,139.68c-0.15,1.56-0.28,2.34-0.28,3.12c-0.02,6.16,0.03,12.33-0.02,18.49
		c-0.17,23.3-0.44,46.6-0.53,69.91c-0.05,13.16-1.05,26.22-3.05,39.23c-0.42,2.75-0.49,5.73,0.08,8.44
		c3.03,14.49,7.02,28.72,13.1,42.25c3.56,7.92,8.03,15.32,14.21,21.56c7.07,7.14,17,7.66,24.01,4.54
		c6.98-3.11,11.56-8.73,14.49-15.79c4.76-11.47,4.4-23.52,3.36-35.42c-1.27-14.63-5.33-28.76-11.1-42.23
		c-7.78-18.18-15.83-36.25-24.31-54.11c-9.13-19.22-18.9-38.15-28.4-57.2C253.49,141.74,253.06,141.06,252.28,139.68z"/>
</g>
</svg>
